<svg id="Component_1_1" data-name="Component 1 – 1" xmlns="http://www.w3.org/2000/svg" width="121.673" height="128.416" viewBox="0 0 121.673 128.416">
  <g id="g10" transform="translate(-172.227 219.999)">
    <path id="path14" d="M215.2-103.489a9.883,9.883,0,0,1-2.38-4.417,36.265,36.265,0,0,1-1.339-6.557c-.233-2.364-.343-4.552-.343-6.567q1.562,1.226,3.6,2.557,1.968,1.334,3.249,2.088a26.434,26.434,0,0,1-2.787,12.9M209.854-147.4a22.818,22.818,0,0,1,10.339,3.776,25.524,25.524,0,0,1,7.724,8.131,29.249,29.249,0,0,1,3.832,11.448,15.143,15.143,0,0,0,.177-5.057q-.35-2.266-.64-3.833a43.181,43.181,0,0,1,4.937,1.161,31.323,31.323,0,0,1,6.563,2.729,26.649,26.649,0,0,1,6.683,5.4,12.985,12.985,0,0,0-2.615-4.24,27.118,27.118,0,0,0-4.245-3.833,12.281,12.281,0,0,1,3.2-2.724,6.417,6.417,0,0,1,2.959-.817,6.37,6.37,0,0,1,4.3,1.859,12.987,12.987,0,0,1,2.959,4.589,17.109,17.109,0,0,1,1.28,5.864,12.717,12.717,0,0,1-.869,5.579,5.365,5.365,0,0,1-2.323,2.729,5.486,5.486,0,0,1-2.907.755,4.5,4.5,0,0,1-2.615-.7,34.658,34.658,0,0,1-6.448.521,54.8,54.8,0,0,1-10.281-1.042,43.678,43.678,0,0,1-10.395-3.369,25.657,25.657,0,0,1-8.3-6.1,16.6,16.6,0,0,1-4.068-9.176,25.171,25.171,0,0,0,2.38,3.6,31.1,31.1,0,0,0,3.193,3.484,16.483,16.483,0,0,0,3.312,2.38q-1.68-1.976-3.656-4.823a42.132,42.132,0,0,1-3.484-6.156,22.611,22.611,0,0,1-1.923-6.443,9.418,9.418,0,0,1,.933-5.7m-5.98-18.989a7.661,7.661,0,0,1,1.74-4.125,14.641,14.641,0,0,1,3.541-3.135,24.966,24.966,0,0,1,4.125-2.152,18.742,18.742,0,0,1,3.484-1.041,37.9,37.9,0,0,1,1.161,6.1,22.68,22.68,0,0,1-.291,6.62,18.793,18.793,0,0,1-2.729,6.792,15.229,15.229,0,0,1-5.808-1.276,9.859,9.859,0,0,1-3.948-3.193,6.708,6.708,0,0,1-1.276-4.588m37.516,5.229a12.543,12.543,0,0,1-.115,4.817,18.843,18.843,0,0,1-1.453,4.417,29.27,29.27,0,0,1-2.088,3.656,8.252,8.252,0,0,0-4.24,2.443,9.423,9.423,0,0,0-1.921,3.885,22.136,22.136,0,0,0-.459,4.536,23.3,23.3,0,0,1-.177-9.932,21.6,21.6,0,0,1,3.021-7.323,20.97,20.97,0,0,1,4.181-4.645,9.785,9.785,0,0,1,3.251-1.855m17.369-34.557-7.9,20.093a21.938,21.938,0,0,1,.113-7.083,22.412,22.412,0,0,1,2.557-7.089,19.873,19.873,0,0,1,5.229-5.921m12.891,1.855a15.956,15.956,0,0,1-.932,7.957,13.426,13.426,0,0,1-4.005,5.344,24.388,24.388,0,0,1-6.036,3.541q-3.376,1.336-6.912,2.385l17.885-19.228m-25.787,85.728a20.5,20.5,0,0,0,8.829-1.681,11.084,11.084,0,0,0,5.629-5.636q1.742-3.9.527-10.4A16.742,16.742,0,0,0,258.291-132a23.594,23.594,0,0,0-4.125-4.76,37.638,37.638,0,0,0-4.005-3.2v-1.047a21.77,21.77,0,0,0-.115-2.2,13.427,13.427,0,0,0-.177-1.8,3.494,3.494,0,0,0-1.041-1.572c-.427-.344-.839-.693-1.224-1.043a1.851,1.851,0,0,1-.577-1.452l3.255-7.611a14.153,14.153,0,0,1-.349-1.853,30.116,30.116,0,0,1-.353-4.183,11.916,11.916,0,0,1,.7-4.473,7.027,7.027,0,0,1,2.552-3.136,22.538,22.538,0,0,1,4.068-2.151q2.266-.868,4.353-1.74a36.2,36.2,0,0,0,3.657-1.859,25.2,25.2,0,0,0,3.895-2.615,13.227,13.227,0,0,0,3.073-3.371,15.1,15.1,0,0,0,1.745-5.109,30.265,30.265,0,0,0,.405-6.213,24.1,24.1,0,0,0-.812-5.635l-20.151,22.359,9.292-22.771a26.211,26.211,0,0,0-5.344,3.027,23.053,23.053,0,0,0-3.948,3.484,16.14,16.14,0,0,0-3.2,6.213,60.306,60.306,0,0,0-1.453,6.8,28.925,28.925,0,0,1-1.853,6.448,11.81,11.81,0,0,1-4.355,5.052q-3.258,2.14-6.219,4.239-2.906,2.15-6.271,4.647c-.041.041-.364.563-.989,1.567q-.984,1.454-2.2,3.428c-.819,1.276-1.511,2.437-2.095,3.484-1.629-.579-3.249-1.2-4.875-1.86a38.957,38.957,0,0,1-3.953-1.8,21.464,21.464,0,0,0,5.115-10.511,30.022,30.022,0,0,0-.7-13.011,10.715,10.715,0,0,0,0-7.317,10.768,10.768,0,0,0-4.235-4.995,20.014,20.014,0,0,0-6.74-2.729,28.112,28.112,0,0,0-7.609-.583,19.825,19.825,0,0,0-8.016,2.031,13.642,13.642,0,0,0-5.635,5.349,17.343,17.343,0,0,0-2.151,8.823,15.579,15.579,0,0,0,1.515,6.683,33.215,33.215,0,0,0,2.787,4.76,8.984,8.984,0,0,1,1.745,3.661c.187,1.161-.427,2.38-1.86,3.661a14.82,14.82,0,0,1-4.416,2.38q-2.726.984-5.579,2.265a14.668,14.668,0,0,0-4.937,3.777,11.523,11.523,0,0,0-2.609,6.619,26.916,26.916,0,0,0,1.161,9q1.454,5.344,3.771,12.027t4.595,14.573a131.4,131.4,0,0,1,3.6,16.671h38.8q0-2.5.052-5.807c0-2.167.027-4.374.063-6.62q.11-3.313.229-5.87c.079-1.739.177-2.98.292-3.713a53.792,53.792,0,0,0,10.281,3.948,44.168,44.168,0,0,0,10.744,1.509" fill="#006e2e" fill-rule="evenodd"/>
    <path id="path16" d="M285.822-185.442a8.223,8.223,0,0,1,4.011,3.833,8.391,8.391,0,0,1,.755,5.521,8.537,8.537,0,0,1-4.009-3.833,8.9,8.9,0,0,1-.756-5.521m-30.145,20.213a8.5,8.5,0,0,1,4.011,3.891,8.375,8.375,0,0,1,.755,5.516,8.835,8.835,0,0,1-4.005-3.885,8.361,8.361,0,0,1-.76-5.521M267-200.311a8.21,8.21,0,0,1-.584,5.577,8.486,8.486,0,0,1-3.885,4.005,8.691,8.691,0,0,1,.579-5.573A8.529,8.529,0,0,1,267-200.311m16.959,5.405a8.746,8.746,0,0,1-.579,5.579,8.538,8.538,0,0,1-3.9,3.943,8.609,8.609,0,0,1,.584-5.516,8.52,8.52,0,0,1,3.891-4.005m-22.125-18.588a8.352,8.352,0,0,1,3.541,4.3,8.645,8.645,0,0,1,.115,5.577,8.65,8.65,0,0,1-3.541-4.3,8.616,8.616,0,0,1-.115-5.577m5.688,38.276a11.533,11.533,0,0,1-.053,7.317,11.125,11.125,0,0,1-4.536,5.693,11.308,11.308,0,0,1,0-7.323,11.037,11.037,0,0,1,4.589-5.688m21.837,6.505a11.019,11.019,0,0,1-.057,7.317,10.742,10.742,0,0,1-4.531,5.693,11.031,11.031,0,0,1,.063-7.319,10.73,10.73,0,0,1,4.525-5.692M256.609-220a11.119,11.119,0,0,1,0,7.26,11.133,11.133,0,0,1-4.531,5.751,10.823,10.823,0,0,1,0-7.317A11.084,11.084,0,0,1,256.609-220m-16.672,8.943a14,14,0,0,1,4.593,1.4,14.143,14.143,0,0,1,3.948,2.907,14.065,14.065,0,0,1,2.787,4.067,13.613,13.613,0,0,1,1.276,4.584,13.931,13.931,0,0,1-4.583-1.391A14.057,14.057,0,0,1,244-202.4a14.048,14.048,0,0,1-2.787-4.063,16,16,0,0,1-1.281-4.593m36.943,30.26a11.362,11.362,0,0,1,4.647,5.636,11.292,11.292,0,0,1,.113,7.323,10.723,10.723,0,0,1-4.583-5.635,11.07,11.07,0,0,1-.177-7.324m1.568-31.473a10.967,10.967,0,0,1,4.645,5.631,11.267,11.267,0,0,1,.115,7.317,11.322,11.322,0,0,1-4.645-5.688,11.129,11.129,0,0,1-.115-7.26m-6.041,45.645a11.146,11.146,0,0,1,2.38,6.917,11.127,11.127,0,0,1-2.38,6.911,11.151,11.151,0,0,1-2.38-6.911,11.006,11.006,0,0,1,2.38-6.917m19.109-37.052a11.015,11.015,0,0,1,2.385,6.912,10.95,10.95,0,0,1-2.385,6.853,11.184,11.184,0,0,1-2.443-6.853,11.246,11.246,0,0,1,2.443-6.912m-23.407-7.781a10.889,10.889,0,0,0,2.38,6.849,10.858,10.858,0,0,0,2.38-6.849,10.934,10.934,0,0,0-2.38-6.911,10.965,10.965,0,0,0-2.38,6.911m-34.849,29.677a8.62,8.62,0,0,0-.583,5.521,8.241,8.241,0,0,0,3.9-3.953,8.73,8.73,0,0,0,.577-5.579,8.538,8.538,0,0,0-3.891,4.011m7.376-7.724a11.069,11.069,0,0,0,4.645,5.636,11.1,11.1,0,0,0-.115-7.261,11.016,11.016,0,0,0-4.645-5.635,11.119,11.119,0,0,0,.115,7.26M232.5-205.828a10.994,10.994,0,0,1,2.38,6.916A11.137,11.137,0,0,1,232.5-192a11.169,11.169,0,0,1-2.38-6.907,11.025,11.025,0,0,1,2.38-6.916" fill="#85bd3a" fill-rule="evenodd"/>
  </g>
</svg>
